<?xml version="1.0" encoding="UTF-8" standalone="no"?>
<!DOCTYPE svg PUBLIC "-//W3C//DTD SVG 1.1//EN" "http://www.w3.org/Graphics/SVG/1.1/DTD/svg11.dtd">
<svg width="100%" height="100%" viewBox="0 0 563 119" version="1.1" xmlns="http://www.w3.org/2000/svg" xmlns:xlink="http://www.w3.org/1999/xlink" xml:space="preserve" xmlns:serif="http://www.serif.com/" style="fill-rule:evenodd;clip-rule:evenodd;stroke-linecap:round;stroke-linejoin:round;stroke-miterlimit:1.5;">
    <g transform="matrix(1,0,0,1,-267.421,-1722.91)">
        <g transform="matrix(2.16258e-17,0.353175,-0.353175,2.16258e-17,1405.38,1210.6)">
            <path d="M1617.72,1632L1636.44,1641C1636.44,1641 1635.31,1734.22 1635.44,1839C1635.57,1943.78 1666.9,2023.37 1750.44,2097C1759.62,2105.09 1782.76,2111 1782.76,2111L1782.76,2125C1782.76,2125 1740.45,2158.87 1705.44,2225C1685.27,2263.1 1676.33,2292.47 1676.33,2292.47L1676.44,2304C1676.44,2304 1683.38,2321.42 1682.44,2348C1681.51,2374.58 1676.94,2383.33 1672.44,2392C1669.56,2397.56 1655.44,2400 1655.44,2400L1647.44,2402C1647.44,2402 1642.14,2484.3 1646.44,2511C1650.75,2537.7 1669.82,2624.22 1693.44,2707C1707.85,2757.47 1708.53,2804.43 1697.44,2861C1692.53,2886.09 1680.44,2907 1680.44,2907C1680.44,2907 1746.45,2952.61 1741.72,3017C1736.99,3081.39 1702.28,3109.42 1671.44,3126C1671.14,3126.16 1670.57,3128.17 1670.65,3131.74C1671.67,3178.81 1710.44,3204 1710.44,3204L1705.44,3220L1617.72,3219L1530,3220L1525,3204C1525,3204 1563.77,3178.81 1564.79,3131.74C1564.87,3128.17 1564.31,3126.16 1564,3126C1533.16,3109.42 1498.45,3081.39 1493.72,3017C1488.99,2952.61 1555,2907 1555,2907C1555,2907 1542.92,2886.09 1538,2861C1526.91,2804.43 1527.6,2757.47 1542,2707C1565.63,2624.22 1584.69,2537.7 1589,2511C1593.31,2484.3 1588,2402 1588,2402L1580,2400C1580,2400 1565.89,2397.56 1563,2392C1558.5,2383.33 1553.94,2374.58 1553,2348C1552.06,2321.42 1559,2304 1559,2304L1559.11,2292.47C1559.11,2292.47 1550.17,2263.1 1530,2225C1494.99,2158.87 1452.68,2125 1452.68,2125L1452.68,2111C1452.68,2111 1475.82,2105.09 1485,2097C1568.55,2023.37 1599.87,1943.78 1600,1839C1600.13,1734.22 1599,1641 1599,1641L1617.72,1632Z" style="fill:rgb(10,10,10);stroke:black;stroke-opacity:0;stroke-width:4.17px;"/>
        </g>
    </g>
</svg>
